<svg width="21" height="20" viewBox="0 0 21 20" fill="none" xmlns="http://www.w3.org/2000/svg">
<g clip-path="url(#clip0_2_18)">
<path d="M6.38869 13.1678H17.6908C18.9728 13.1678 20.0185 12.1483 20.0185 10.8983V6.26159C20.0185 6.25769 20.0185 6.24987 20.0185 6.24597C20.0185 6.23425 20.0185 6.22644 20.0185 6.21472C20.0185 6.2069 20.0185 6.19909 20.0145 6.19128C20.0145 6.18347 20.0105 6.17175 20.0105 6.16394C20.0105 6.15612 20.0065 6.14831 20.0065 6.1405C20.0025 6.13269 20.0025 6.12487 19.9985 6.11315C19.9945 6.10534 19.9945 6.09753 19.9905 6.08972C19.9864 6.0819 19.9864 6.07409 19.9824 6.06628C19.9784 6.05847 19.9744 6.05065 19.9704 6.03894C19.9664 6.03112 19.9624 6.02331 19.9584 6.0194C19.9544 6.01159 19.9504 6.00378 19.9464 5.99597C19.9424 5.98815 19.9384 5.98425 19.9344 5.97644C19.9304 5.96862 19.9223 5.96081 19.9183 5.953C19.9143 5.94519 19.9103 5.94128 19.9023 5.93347C19.8983 5.92565 19.8903 5.92175 19.8863 5.91394C19.8823 5.90612 19.8743 5.90222 19.8703 5.8944C19.8663 5.88659 19.8582 5.88269 19.8542 5.87878C19.8462 5.87097 19.8422 5.86706 19.8342 5.85925C19.8262 5.85534 19.8222 5.84753 19.8142 5.84362C19.8062 5.83972 19.7981 5.8319 19.7901 5.828C19.7821 5.82409 19.7781 5.82019 19.7701 5.81628C19.7621 5.81237 19.7541 5.80847 19.7461 5.80065C19.7381 5.79675 19.73 5.79284 19.722 5.78894C19.714 5.78503 19.706 5.78112 19.698 5.77722C19.69 5.77331 19.682 5.7694 19.6739 5.7655C19.6659 5.76159 19.6579 5.76159 19.6499 5.75769C19.6419 5.75378 19.6299 5.74987 19.6219 5.74987C19.6139 5.74987 19.6058 5.74597 19.6018 5.74597C19.5898 5.74206 19.5818 5.74206 19.5698 5.74206C19.5658 5.74206 19.5618 5.73815 19.5538 5.73815L5.20279 3.78503V1.83581C5.20279 1.81628 5.20279 1.79285 5.19879 1.77722C5.19879 1.77331 5.19879 1.76941 5.19478 1.7616C5.19478 1.74988 5.19077 1.73816 5.19077 1.72644C5.18677 1.71472 5.18677 1.70691 5.18276 1.69519C5.18276 1.68738 5.17876 1.68347 5.17876 1.67566C5.17475 1.66394 5.17074 1.65222 5.16674 1.6405C5.16674 1.6366 5.16273 1.62878 5.16273 1.62488C5.15872 1.61316 5.15472 1.60535 5.1467 1.59363C5.1427 1.58972 5.1427 1.58191 5.13869 1.578C5.13468 1.57019 5.13068 1.56238 5.12267 1.55456C5.11866 1.54675 5.11465 1.54285 5.11065 1.53503C5.10664 1.52722 5.10263 1.52331 5.09863 1.5155C5.09462 1.50769 5.08661 1.49988 5.0826 1.49206C5.07859 1.48816 5.07459 1.48425 5.07058 1.48035C5.06257 1.47253 5.05456 1.46472 5.04654 1.45691C5.04254 1.453 5.03853 1.4491 5.03452 1.44519C5.02651 1.43738 5.0185 1.42956 5.00648 1.42175C5.00247 1.41785 4.99446 1.41394 4.99045 1.41003C4.98244 1.40222 4.97443 1.39831 4.96642 1.3905C4.9544 1.38269 4.94238 1.37488 4.93436 1.37097C4.93036 1.36706 4.92635 1.36706 4.92234 1.36316C4.90632 1.35535 4.88629 1.34753 4.86626 1.33972L1.74526 0.0428474C1.45279 -0.0782462 1.12026 0.0545661 1.00007 0.339722C0.879877 0.624878 1.01209 0.949097 1.30456 1.06628L4.06097 2.1991V4.71472V5.11706V8.17565V10.91V14.3631C4.06097 15.5155 4.94638 16.4686 6.08821 16.6131C5.87988 16.9491 5.75968 17.3436 5.75968 17.7655C5.75968 19.0038 6.79334 20.0038 8.05536 20.0038C9.31738 20.0038 10.351 18.996 10.351 17.7655C10.351 17.3553 10.2389 16.9647 10.0345 16.6366H15.1507C14.9464 16.9686 14.8342 17.3553 14.8342 17.7655C14.8342 19.0038 15.8679 20.0038 17.1299 20.0038C18.3919 20.0038 19.4256 18.996 19.4256 17.7655C19.4256 16.535 18.3919 15.5272 17.1299 15.5272H6.38869C5.73164 15.5272 5.19879 15.0038 5.19879 14.3671V12.8631C5.54734 13.0546 5.956 13.1678 6.38869 13.1678ZM9.22122 17.7538C9.22122 18.3788 8.70039 18.8827 8.06337 18.8827C7.42635 18.8827 6.90552 18.3749 6.90552 17.7538C6.90552 17.1327 7.42635 16.6249 8.06337 16.6249C8.70039 16.6249 9.22122 17.1327 9.22122 17.7538ZM18.3038 17.7538C18.3038 18.3788 17.7829 18.8827 17.1459 18.8827C16.5089 18.8827 15.988 18.3749 15.988 17.7538C15.988 17.1327 16.5089 16.6249 17.1459 16.6249C17.7829 16.6249 18.3038 17.1327 18.3038 17.7538ZM17.6908 12.0585H6.38869C5.73164 12.0585 5.19879 11.535 5.19879 10.8983V8.16393V5.10534V4.89831L18.8807 6.73425V10.8905C18.8807 11.5389 18.3438 12.0585 17.6908 12.0585Z" fill="black"/>
</g>
<defs>
<clipPath id="clip0_2_18">
<rect width="20.5128" height="20" fill="white" transform="translate(0.230835)"/>
</clipPath>
</defs>
</svg>
